/* XPM */
static char *go_previous[] = {
/* columns rows colors chars-per-pixel */
"48 48 135 2 ",
"   c #20204A4A8787",
".  c #282851508C8B",
"X  c #2A2A52528C8B",
"o  c #2C2B54548E8D",
"O  c #2F2F57569191",
"+  c #302F57569090",
"@  c #303059599191",
"#  c #313159589393",
"$  c #34335C5C9493",
"%  c #35355D5C9595",
"&  c #37375E5E9493",
"*  c #39395E5E9494",
"=  c #3A3961619897",
"-  c #3F3E65659A9A",
";  c #34346565A4A4",
":  c #38386868A6A6",
">  c #3A3A6A6AA7A7",
",  c #3E3E6B6BA5A5",
"<  c #3E3E6D6DA9A9",
"1  c #424266669A9A",
"2  c #434368689E9D",
"3  c #48476B6B9D9D",
"4  c #4B4B6C6B9D9D",
"5  c #43436A6AA09F",
"6  c #47476F6FA6A6",
"7  c #43436F6FAAAA",
"8  c #49497170A6A5",
"9  c #4D4D7272A6A6",
"0  c #42427070AAAA",
"q  c #43437070ABAB",
"w  c #45457272ABAB",
"e  c #47477373ADAD",
"r  c #4C4C7676ABAB",
"t  c #48487474ADAD",
"y  c #4C4C7777AFAF",
"u  c #504F7171A2A2",
"i  c #56567676A5A5",
"p  c #59587979A7A6",
"a  c #52517979ACAC",
"s  c #53537B7BAFAF",
"d  c #57567B7AADAD",
"f  c #59597E7EAFAE",
"g  c #48487878B2B2",
"h  c #4A4A7979B3B3",
"j  c #4B4B7A7AB3B3",
"k  c #4F4F7A7AB0B0",
"l  c #4D4D7B7BB4B4",
"z  c #4F4F7D7DB5B5",
"x  c #54547D7DB2B2",
"c  c #56567F7FB3B3",
"v  c #50507D7DB5B5",
"b  c #58587F7FB3B3",
"n  c #605F7E7EAAAA",
"m  c #57578282B8B8",
"M  c #59598484B9B9",
"N  c #5E5E8888BBBB",
"B  c #62618686B4B3",
"V  c #61618A8ABDBD",
"C  c #62628B8BBDBD",
"Z  c #64648C8CBEBE",
"A  c #65658D8DBEBE",
"S  c #69698D8CBABA",
"D  c #6A6A8E8DBDBD",
"F  c #72728D8DB4B4",
"G  c #7B7B9191B1B1",
"H  c #78789191B7B7",
"J  c #7E7E9797BABA",
"K  c #68688F8FC0C0",
"L  c #6B6B9191C1C1",
"P  c #6F6F9494C1C1",
"I  c #6F6F9494C2C2",
"U  c #70709595C3C3",
"Y  c #72729696C4C4",
"T  c #73739797C4C4",
"R  c #74749898C4C4",
"E  c #77779B9BC6C6",
"W  c #78789B9BC5C5",
"Q  c #7A7A9C9CC6C6",
"!  c #7C7C9E9EC7C7",
"~  c #7E7E9F9FC6C6",
"^  c #7F7FA0A0C8C8",
"/  c #83839A9ABDBD",
"(  c #85849C9CBEBE",
")  c #9797A6A6BCBC",
"_  c #8181A2A2C9C9",
"`  c #9191A6A6C4C4",
"'  c #9898ACACC8C8",
"]  c #9F9FB0B0CBCB",
"[  c #A5A5B6B6CFCF",
"{  c #B4B4BEBECDCD",
"}  c #A7A7B7B7D0D0",
"|  c #B0B0C0C0D5D5",
" . c #B7B7C5C5D9D9",
".. c #BABAC7C7DADA",
"X. c #C1C1CDCDDEDE",
"o. c #CCCCD3D3DCDC",
"O. c #D8D8D8D8D8D8",
"+. c #DADADADADADA",
"@. c gray87",
"#. c #CACAD4D4E2E2",
"$. c #D5D5DBDBE2E2",
"%. c #D2D2DADAE7E7",
"&. c #DBDBDEDEE2E2",
"*. c #D7D7DEDEE9E9",
"=. c #DEDEE4E4EDED",
"-. c gray88",
";. c #E1E1E1E1E1E1",
":. c gray89",
">. c #E7E7E7E7E7E7",
",. c gray91",
"<. c #EAEAEAEAEAEA",
"1. c gray92",
"2. c #ECECECECECEC",
"3. c #EEEEEEEEEEEE",
"4. c #EFEFEFEFEFEF",
"5. c #E7E7EBEBF2F2",
"6. c #ECECEFEFF3F3",
"7. c #ECECEFEFF5F5",
"8. c #EEEEF1F1F5F5",
"9. c gray94",
"0. c gray95",
"q. c #F3F3F3F3F3F3",
"w. c #F0F0F3F3F7F7",
"e. c #F4F4F4F4F4F4",
"r. c #F6F6F6F6F6F6",
"t. c gray97",
"y. c #F4F4F6F6F9F9",
"u. c #F5F5F6F6F9F9",
"i. c #F7F7F9F9FBFB",
"p. c #F8F8F8F8F8F8",
"a. c gray98",
"s. c #FBFBFBFBFBFB",
"d. c #F9F9FAFAFCFC",
"f. c gray99",
"g. c gray100",
/* pixels */
"g.g.g.g.g.g.g.g.g.g.g.g.g.g.g.g.g.g.g.g.g.g.g.g.g.g.g.g.g.g.g.g.g.g.g.g.g.g.g.g.g.g.g.g.g.g.g.g.",
"g.g.g.g.g.g.g.g.g.g.g.g.g.g.g.g.g.g.g.g.g.g.g.g.g.g.g.g.g.g.g.g.g.g.g.g.g.g.g.g.g.g.g.g.g.g.g.g.",
"g.g.g.g.g.g.g.g.g.g.g.g.g.g.g.g.g.g.g.g.g.g.g.g.g.g.g.g.g.g.g.g.g.g.g.g.g.g.g.g.g.g.g.g.g.g.g.g.",
"g.g.g.g.g.g.g.g.g.g.g.g.g.g.g.g.g.g.g.g.g.g.g.g.g.g.g.g.g.g.g.g.g.g.g.g.g.g.g.g.g.g.g.g.g.g.g.g.",
"g.g.g.g.g.g.g.g.g.g.g.g.g.g.g.g.g.g.g.g.g.g.g.g.g.g.g.g.g.g.g.g.g.g.g.g.g.g.g.g.g.g.g.g.g.g.g.g.",
"g.g.g.g.g.g.g.g.g.g.g.g.g.g.g.g.g.g.g.g.g.g.g.g.g.g.g.g.g.g.g.g.g.g.g.g.g.g.g.g.g.g.g.g.g.g.g.g.",
"g.g.g.g.g.g.g.g.g.g.g.g.g.g.g.g.g.g.g.g.g.g.g.g.g.g.g.g.g.g.g.g.g.g.g.g.g.g.g.g.g.g.g.g.g.g.g.g.",
"g.g.g.g.g.g.g.g.g.g.g.g.g.g.g.g.g.g.g.g.g.g.g.g.g.g.g.g.g.g.g.g.g.g.g.g.g.g.g.g.g.g.g.g.g.g.g.g.",
"g.g.g.g.g.g.g.g.g.g.g.g.g.g.g.g.g.g.g.g.g.g.g.g.%.g.g.g.g.g.g.g.g.g.g.g.g.g.g.g.g.g.g.g.g.g.g.g.",
"g.g.g.g.g.g.g.g.g.g.g.g.g.g.g.g.g.g.g.g.g.g.g...  g.g.g.g.g.g.g.g.g.g.g.g.g.g.g.g.g.g.g.g.g.g.g.",
"g.g.g.g.g.g.g.g.g.g.g.g.g.g.g.g.g.g.g.g.g.g.[ #   g.g.g.g.g.g.g.g.g.g.g.g.g.g.g.g.g.g.g.g.g.g.g.",
"g.g.g.g.g.g.g.g.g.g.g.g.g.g.g.g.g.g.g.g.g.J 2 !   g.g.g.g.g.g.g.g.g.g.g.g.g.g.g.g.g.g.g.g.g.g.g.",
"g.g.g.g.g.g.g.g.g.g.g.g.g.g.g.g.g.g.g.i.n 9 _ ^   g.g.g.g.g.g.g.g.g.g.g.g.g.g.g.g.g.g.g.g.g.g.g.",
"g.g.g.g.g.g.g.g.g.g.g.g.g.g.g.g.g.g.6.3 d ! m Q   g.g.g.g.g.g.g.g.g.g.g.g.g.g.g.g.g.g.g.g.g.g.g.",
"g.g.g.g.g.g.g.g.g.g.g.g.g.g.g.g.g.=.& B E v l Q   g.g.g.g.g.g.g.g.g.g.g.g.g.g.g.g.g.g.g.g.g.g.g.",
"g.g.g.g.g.g.g.g.g.g.g.g.g.g.g.g.#.# S Y l h l W   g.g.g.g.g.g.g.g.g.g.g.g.g.g.g.g.g.g.g.g.g.g.g.",
"g.g.g.g.g.g.g.g.g.g.g.g.g.g.g.| # S Y j h h l E   g.g.g.g.g.g.g.g.g.g.g.g.g.g.g.g.g.g.g.g.g.g.g.",
"g.g.g.g.g.g.g.g.g.g.g.g.g.g.` = Q Z h h h h l R                                 g.g.g.g.g.g.g.g.",
"g.g.g.g.g.g.g.g.g.g.g.g.g.F 2 ! N h h h h h l Q E E E E E Y Y I I I I I I L L   g.g.g.g.g.g.g.g.",
"g.g.g.g.g.g.g.g.g.g.g.y.i 9 R m h h h h h h h h h h h h h h h h h h h h h h L   g.g.g.g.g.g.g.g.",
"g.g.g.g.g.g.g.g.g.g.5.- b E m h h h h h h h h h h h h h h h h h h h h h h h L   g.g.g.g.g.g.g.g.",
"g.g.g.g.g.g.g.g.g.*.@ B R z g h h h h h h h h h h h h h h h h h h h h h h j C   g.g.g.g.g.g.g.g.",
"g.g.g.g.g.g.g.g.X.@ S Y h h h h h h h h h h h h h h h h h h h h h h h h h h A   g.g.g.g.g.g.g.g.",
"g.g.g.g.g.g.g.[ & Y Z h h h h h h h h h h h h h h h h h h h h h h h h h h h Z   g.g.g.g.g.g.g.g.",
"g.g.g.g.g.g.( = Y V h h h h h h h h h h h h h h h h h h h h h h h h h h h h C   g.g.g.g.g.g.g.g.",
"g.g.g.g.d.u 3 W M h h g g g g g g g g g g g g g g g g g g g g g h h e g g g C   g.g.g.g.g.g.g.g.",
"g.g.g.g.i.4 1 D q ; ; ; ; ; ; ; ; ; ; ; ; ; ; ; ; ; ; ; ; ; ; ; ; ; ; ; ; ; e   g.g.g.g.g.g.g.g.",
"g.g.g.g.g.g./ $ B e ; ; ; ; ; ; ; ; ; ; ; ; ; ; ; ; ; ; ; ; ; ; ; ; ; ; ; ; t   g.g.g.g.g.g.g.g.",
"g.g.g.g.g.g.g.[ @ c d ; ; ; ; ; ; ; ; ; ; ; ; ; ; ; ; ; ; ; ; ; ; ; ; ; ; ; t   g.g.g.g.g.g.g.g.",
"g.g.g.g.g.g.g.g.X.O a x ; ; ; ; ; ; ; ; ; ; ; ; ; ; ; ; ; ; ; ; ; ; ; ; ; ; w   g.g.g.g.g.g.g.g.",
"g.g.g.g.g.g.g.g.g.*.# 8 c > ; ; ; ; ; ; ; ; ; ; ; ; ; ; ; ; ; ; ; ; ; ; ; ; w   g.g.g.g.g.g.g.g.",
"g.g.g.g.g.g.g.g.g.g.6.1 2 c > ; ; ; ; ; ; ; ; ; ; ; ; ; ; ; ; ; ; ; ; ; ; ; 0   g.g.g.g.g.g.g.g.",
"g.g.g.g.g.g.g.g.g.g.g.y.p = c < ; ; ; ; ; ; ; ; ; ; ; ; ; ; ; ; ; ; ; ; ; ; <   g.g.g.g.g.g.g.g.",
"g.g.g.g.g.g.g.g.g.g.g.g.g.H $ a 7 ; ; ; ; ; ; k k y y y e e t e e e 0 0 7 7 <   g.g.g.g.g.g.g.g.",
"g.g.g.g.g.g.g.g.g.g.g.g.g.g.' # r w ; ; ; ; ; y   . . . X . X X . X . . . . .   g.g.g.g.g.g.g.g.",
"g.g.g.g.g.g.g.g.g.g.g.g.g.g.g. .o 6 e ; ; ; ; y   6.6.8.6.8.8.e.w.w.w.8.w.w.w.8.g.g.g.g.g.g.g.g.",
"g.g.g.g.g.g.g.g.g.g.g.g.d.a.a.t.o.O , e ; ; ; e   y.0.q.r.r.r.t.d.d.f.a.g.g.g.g.g.g.g.g.g.g.g.g.",
"g.g.g.g.g.g.g.g.g.d.t.t.y.r.q.0.0.$.* - e : : e   <.3.<.3.3.3.9.0.0.q.y.t.t.t.g.g.g.g.g.g.g.g.g.",
"g.g.g.g.g.g.g.d.t.y.r.0.0.9.3.2.<.<.@.4 $ t > w   >.:.>.,.,.<.<.<.3.3.0.0.y.r.a.d.g.g.g.g.g.g.g.",
"g.g.g.g.g.g.d.t.r.q.0.9.3.2.<.,.>.>.:.+.B # 0 w   @.@.;.;.:.>.>.<.<.3.3.0.0.0.r.t.t.g.g.g.g.g.g.",
"g.g.g.g.g.d.f.t.r.0.0.3.3.<.<.,.;.:.;.@.@.G o 5   O.+.+.@.;.;.>.,.<.<.3.3.0.0.t.d.a.d.g.g.g.g.g.",
"g.g.g.g.g.g.f.t.r.r.0.0.3.<.<.,.>.>.:.;.@.@.) X   @.@.@.;.;.>.,.,.<.3.3.0.0.0.t.r.a.g.g.g.g.g.g.",
"g.g.g.g.g.g.f.t.a.r.r.0.0.9.3.2.<.<.>.>.>.;.>.{   >.>.>.>.,.<.<.,.3.3.0.0.r.f.t.g.t.g.g.g.g.g.g.",
"g.g.g.g.g.g.g.g.f.a.a.t.r.r.0.0.0.9.3.3.3.3.<.3.o.<.3.3.3.3.3.9.0.0.r.r.r.a.t.d.g.g.g.g.g.g.g.g.",
"g.g.g.g.g.g.g.g.g.g.g.g.f.d.a.t.y.q.t.r.q.q.r.9.0.r.0.r.t.y.r.y.a.d.t.f.g.g.g.g.g.g.g.g.g.g.g.g.",
"g.g.g.g.g.g.g.g.g.g.g.g.f.g.g.g.g.g.g.d.f.f.a.d.f.a.f.a.t.g.f.g.g.g.g.g.g.g.g.g.g.g.g.g.g.g.g.g.",
"g.g.g.g.g.g.g.g.g.g.g.g.g.g.g.g.g.g.g.g.g.g.g.g.g.g.g.g.g.g.g.g.g.g.g.g.g.g.g.g.g.g.g.g.g.g.g.g.",
"g.g.g.g.g.g.g.g.g.g.g.g.g.g.g.g.g.g.g.g.g.g.g.g.g.g.g.g.g.g.g.g.g.g.g.g.g.g.g.g.g.g.g.g.g.g.g.g."
};
