/* XPM */
static char *player_start[] = {
/* columns rows colors chars-per-pixel */
"48 48 50 1 ",
"  c #555557575353",
". c #616163635F5F",
"X c #6463662C6229",
"o c #6633686763FD",
"O c #6CD26EA16B04",
"+ c #6F1970C56D17",
"@ c #707071716E6E",
"# c #73E1752B71BA",
"$ c #7776793875B5",
"% c #787779787676",
"& c #7A7A7BFB78F8",
"* c #7EFF80807D7D",
"= c #840385858302",
"- c #868688878585",
"; c #88878A8A8731",
": c #8C0B8D4C8A69",
"> c #909092918F8F",
", c #989798979594",
"< c #9D7D9E5E9BDB",
"1 c #A0A0A2219F9F",
"2 c #A40AA53EA356",
"3 c #A8A8A9A9A7A7",
"4 c #ACACADACABAB",
"5 c #AFAFB0B0AEAE",
"6 c #B2B2B3B3B1B1",
"7 c #B8B7B963B761",
"8 c #BCE1BD74BBBB",
"9 c #BFBFC0C0BDBD",
"0 c #C141C1C1BF7F",
"q c #C45AC500C295",
"w c #C7C7C8C8C5C5",
"e c #C969CA4AC706",
"r c #CD0ACDC3CB27",
"t c #CFCFD0D0CD8D",
"y c #D13AD1E0CEEC",
"u c #D526D5C6D35A",
"i c #D7D7D8D8D5D5",
"p c #D9A6DA2FD73D",
"a c #DD52DD8BDC66",
"s c #DFDFE0E0DDDD",
"d c #E14EE18BDF40",
"f c #E4F3E537E3AA",
"g c #E7E7E8E8E666",
"h c #E948E958E756",
"j c #ECAFECC7EBB4",
"k c #EFEFF0F0EF6F",
"l c #F171F171EFEF",
"z c #F4BFF4CCF491",
"x c #F8F8F8F8F7F7",
"c c #FFDFFFDFFFDE",
/* pixels */
"cccccccccccccccccccccccccccccccccccccccccccccccc",
"cccccccccccccccccccccccccccccccccccccccccccccccc",
"cccccccccccccccccccccccccccccccccccccccccccccccc",
"cccccccccccccccccccccccccccccccccccccccccccccccc",
"cccccccccccccccccccccccccccccccccccccccccccccccc",
"cccccccccccccccccccccccccccccccccccccccccccccccc",
"cccccccccccccccccccccccccccccccccccccccccccccccc",
"cccccccccccccccccccccccccccccccccccccccccccccccc",
"cccccccccccccccccccccccccccccccccccccccccccccccc",
"cccccccccccccccccccccccccccccccccccccccccccccccc",
"cccccccccccccccccccccccccccccccccccccccccccccccc",
"cczfafaafzcccccccccccccccxlccccccccccccccccxlxcc",
"ccf&    *fccccccccccccccju:fccccccccccccccju:fcc",
"cca cccc sccccccccccccls3. accccccccccccla2X acc",
"cca c0qc sccccccccccxf0@:x accccccccccxf0@:x acc",
"ccf cqwc scccccccccjy;+uxc acccccccccju:Ouxc fcc",
"cca cwwc scccccccka1.8xd9c acccccccla2X7xd8c gcc",
"ccd ceec acccccxf8+,zlu09c acccccxgq+,kkr88c jcc",
"ccd crrc acccchr-@axarreqc accccji-#azuqq0qc lcc",
"cca crtc accki1X0cftttyrec dccls2X0cfrrwewwc zcc",
"cca cttc pzf7O<zkuttuuuutc fxh0O<zluyrrrrrrc ccc",
"cca cuuc pr=$fxattuuuuiiuc hp:$fxpyyuyyyytrc ccc",
"ccp cuuc <owcfuuuuuuiiipac 2Xqcftyuuiiiuuuyc ccc",
"cca ciic 1ckuuuiiaauaasaac 1cjtryuipppppiiuc ccc",
"cca caic 2ckuuppaassdssdac 2ckytuuaaasddaaic ccc",
"cca caac <Xrcjpaaddddgdddc 4Xechuuaasdfdddac ccc",
"ccs cadc ha-%gxhdffghggffc cj:%fxgaadgggfddc ccc",
"ccf cffc kxlrO2xxhgjjjhfdc cccu+2xzfhhjjhgdc ccc",
"ccj cffc zcccz5Xexxjjjgffc ccccc6Xecljjkjgdc ccc",
"cck chhc xccccck>$hxljffac cccccck>$gcljhgdc ccc",
"ccz chjc cccccccci$<zxgdac ccccccccu#<zxjfdc ccc",
"ccx cjjc cccccccccx7Xwxkac cccccccccc7Xwxldc ccc",
"ccc chjc cccccccccccl,@acc cccccccccccl,#acc ccc",
"ccc cghc ccccccccccccca$>x ccccccccccccca%,x ccc",
"ccc cccc ccccccccccccccc8X ccccccccccccccc8X ccc",
"ccc:    ;ccccccccccccccccz<ccccccccccccccccz<ccc",
"cccccccccccccccccccccccccccccccccccccccccccccccc",
"cccccccccccccccccccccccccccccccccccccccccccccccc",
"cccccccccccccccccccccccccccccccccccccccccccccccc",
"cccccccccccccccccccccccccccccccccccccccccccccccc",
"cccccccccccccccccccccccccccccccccccccccccccccccc",
"cccccccccccccccccccccccccccccccccccccccccccccccc",
"cccccccccccccccccccccccccccccccccccccccccccccccc",
"cccccccccccccccccccccccccccccccccccccccccccccccc",
"cccccccccccccccccccccccccccccccccccccccccccccccc",
"cccccccccccccccccccccccccccccccccccccccccccccccc",
"cccccccccccccccccccccccccccccccccccccccccccccccc",
"cccccccccccccccccccccccccccccccccccccccccccccccc"
};
