/* XPM */
static char *reload[] = {
/* columns rows colors chars-per-pixel */
"48 48 151 2 ",
"   c #20204A4A8787",
".  c #23FF4DE08988",
"X  c #272650508C8B",
"o  c #2A8453668DE7",
"O  c #302F56D68E8E",
"+  c #2D8D56B590D0",
"@  c #2F2F59199291",
"#  c #33A05B4393AA",
"$  c #38785EDE95D5",
"%  c #34A25F159ABE",
"&  c #38385F5F9999",
"*  c #3B0761609696",
"=  c #35A360CE9C77",
"-  c #3B84630D9B14",
";  c #34B46363A0A0",
":  c #3A5A66A6A343",
">  c #3DE86994A423",
",  c #3C926C79AB00",
"<  c #444465659514",
"1  c #424165E59ADA",
"2  c #458569899C3B",
"3  c #49896CAC9E9E",
"4  c #44686D48A4C8",
"5  c #499E6EC3A24C",
"6  c #41C26EEFABAB",
"7  c #4C4C71C6A4F9",
"8  c #430871ACAE73",
"9  c #4AB17575ADE0",
"0  c #52527440A43D",
"q  c #58587979A7A6",
"w  c #52517877ABAA",
"e  c #5D1D7CFCAA29",
"r  c #455074DFB25C",
"t  c #48EC76BCB2C9",
"y  c #4BEF79FDB55F",
"u  c #4DF27D21B9A7",
"i  c #52C27DBDB5E5",
"p  c #51A77F29B9B9",
"a  c #60607E7EABAB",
"s  c #5B5B8180B4B4",
"d  c #552581E1BB3A",
"f  c #5AFE8611BD48",
"g  c #5CDD8909BF3F",
"h  c #6C168282A2A2",
"j  c #71718484A0A0",
"k  c #76768989A5A5",
"l  c #706F8888A9A9",
"z  c #7B7B8E8EA9A9",
"x  c #63E48505B1B0",
"c  c #6B6B8787B0B0",
"v  c #6AEA8909B2B2",
"b  c #64BA8AE0BC11",
"n  c #72728E8EB4B3",
"m  c #74749090B6B6",
"M  c #78789292B6B6",
"N  c #71F29454BEBE",
"B  c #7F7F9797BBBB",
"V  c #5DDE8A0AC0C0",
"C  c #63FD8E0DC28F",
"Z  c #65E69090C3C3",
"A  c #6B349393C557",
"S  c #70709696C7C7",
"D  c #70709898C7C7",
"F  c #7BFB9A9AC201",
"G  c #73D39B1BC989",
"H  c #7A4F9F74CB20",
"J  c #7CDCA201CD2C",
"K  c #7575A222D151",
"L  c #7C57A5CAD2AD",
"P  c #83839413ABAB",
"I  c #93939E9EAEAE",
"U  c #842E9BF1BE13",
"Y  c #88889F9FBFBF",
"T  c #9A9AA2A2ADAD",
"R  c #9898A4A4B6B6",
"E  c #9999A7A7BCBC",
"W  c #9E9EA9A9B9B9",
"Q  c #A6A6ACACB6B6",
"!  c #ABABAFAFB6B6",
"~  c #BC89BC89BCBC",
"^  c #84D9A2A2C61B",
"/  c #8B8BA36FC491",
"(  c #81D7A626CF4E",
")  c #8A4AA727CB0A",
"_  c #8484A8A8CFCF",
"`  c #8E8EAAAACACA",
"'  c #9595A9FFC71C",
"]  c #9313AE6ECE0D",
"[  c #9A9AADADC9C9",
"{  c #8435AA6FD3FB",
"}  c #8B4EAE03D435",
"|  c #9090AEAED4D4",
" . c #8E41B164D6BC",
".. c #9486B450D647",
"X. c #9BACB45ED3D3",
"o. c #9CF2B90ED6D6",
"O. c #94D2B5DED953",
"+. c #9898B7B7D8D8",
"@. c #9CFBBB39DB2C",
"#. c #A53EB683CF68",
"$. c #AFAFBC3CCECE",
"%. c #B25CBC66CB75",
"&. c #A0A0B5B5D2D2",
"*. c #A2A2BA2BD72C",
"=. c #AB78BB54D29F",
"-. c #A28FBD43DB74",
";. c #A976BF8BDBDB",
":. c #B8B8C2C2CFCF",
">. c #A650C116DCDC",
",. c #AC24C3FFDEC0",
"<. c #B2B2C1C1D6D6",
"1. c #B380C72DDE10",
"2. c #B9B9C6C6D9D9",
"3. c #B35DC91EDF89",
"4. c #BDBDC9F4DC31",
"5. c #B131C545E0E0",
"6. c #B534CADCE3AC",
"7. c #BA7ACD6DE443",
"8. c #BE57D137E6CC",
"9. c #BE13D328E93E",
"0. c #C419C419C419",
"q. c #C4C4C7C7CACA",
"w. c #CC76CC76CC85",
"e. c #C390CECEDF78",
"r. c #D47AD47AD47A",
"t. c #DBFFDBFFDC06",
"y. c #C4C4D36CE517",
"u. c #CBCBD56EE3E3",
"i. c #CFCFD8D8E5E5",
"p. c #C557D60CE9FB",
"a. c #C6C6D8D8EAEA",
"s. c #CB98DA59EBEB",
"d. c #DD5DDF5FE363",
"f. c #D441DECCED11",
"g. c #D8D8DFDFEAEA",
"h. c #D5D5E0E0EFEF",
"j. c #DB85E2E2ED42",
"k. c #D7D7E2E2F0F0",
"l. c #DBF8E5E5F2B9",
"z. c #DFDFE8E8F4F4",
"x. c #E4FAE4FAE4FA",
"c. c #E136E6E6EF99",
"v. c #EC7CEC7CEC7C",
"b. c #E497EC38F5C2",
"n. c #EA09EF2EF655",
"m. c #EF44F29CF7A1",
"M. c #ED5EF29CF9A3",
"N. c #F4B8F4BDF4C2",
"B. c #F40AF6DFFB11",
"V. c #F777F9D9FCBC",
"C. c #FFC8FFCAFFCE",
/* pixels */
"C.C.C.C.C.C.C.C.C.C.C.C.C.C.C.C.C.C.C.C.C.C.C.C.C.C.C.C.C.C.C.C.C.C.C.C.C.C.C.C.C.C.C.C.C.C.C.C.",
"C.C.C.C.C.C.C.C.C.C.C.C.C.C.C.C.C.C.C.C.C.C.C.C.C.C.C.C.C.C.C.C.C.C.C.C.C.C.C.C.C.C.C.C.C.C.C.C.",
"C.C.C.C.C.C.C.C.C.C.C.C.C.C.C.C.C.C.C.C.C.C.C.C.C.C.C.C.C.C.C.C.C.C.C.C.C.C.C.C.C.C.C.C.C.C.C.C.",
"C.C.C.C.C.C.C.C.C.C.C.C.C.C.C.n.4.#.' U Y ' =.e.n.C.C.C.C.C.C.C.C.C.C.C.C.C.C.C.C.C.C.4.C.C.C.C.",
"C.C.C.C.C.C.C.C.C.C.C.C.u.m O + & & ; : : - 1 - o X q [ g.C.C.C.C.C.C.C.C.C.C.C.C.C.4.  C.C.C.C.",
"C.C.C.C.C.C.C.C.C.C.2.$ & ; 6 r t r y y y p d f C b i 5 # $ / c.C.C.C.C.C.C.C.C.C.e.#   C.C.C.C.",
"C.C.C.C.C.C.C.C.n.0 $ 6 9 , , , , , 8 8 r r r r y p f Z S N w @ 0 e.C.C.C.C.C.C.u.@ ;.  C.C.C.C.",
"C.C.C.C.C.C.C.g.$ 4 9 r , , , , , 8 8 8 r r y y y u u u d A J | N 1 2 2.C.C.C.u.O o.y.. C.C.C.C.",
"C.C.C.C.C.C.b.# 4 p t 6 , , , 6 6 r r r r t y y y u u u V V A S } *.) 2 0 f.i.# o.7.a.  C.C.C.C.",
"C.C.C.C.C.C.3 4 d 9 6 , 6 t 8 9 9 9 i f f f p y y u u V V C S G J _ o.3.^ $   ] 7.-.p.. C.C.C.C.",
"C.C.C.C.C.=.- d y r 6 > & X @ & * * $ . $ 5 i A Z V p V Z A S H L }  .+.,.7.>.9.-.@.y.o C.C.C.C.",
"C.C.C.C.C.$ 9 i 9 > + 5 F X.*.X.g.C.C.C.g.#.q o 4 b J S A S G L ( } O.+.o.@.>.@.-.@.9.o C.C.C.C.",
"C.C.C.C.e.- s y - $ ) *.*.;.*.4.C.C.C.C.C.C.C.B.#.1 - N | ( H _ }  .+.+.@.@.-.@.-.O.9.o C.C.C.C.",
"C.C.C.C.U 4 i - 4 *.-.;.;.5.X.n.C.C.C.C.C.C.C.C.C.C.e.3 1 _ @.|  .O.+.+.@.@.@.@.@.O.9.o C.C.C.C.",
"C.C.C.C.- i > - -.5.5.6.6.7.X.C.C.C.C.C.C.C.C.C.C.C.C.C.<.# x ;.-.+.O.@.@.@.-.@.O.O.6.o C.C.C.C.",
"C.C.C.C.. 9 O X.7.7.8.p.p.7.;.C.C.C.C.C.C.C.C.C.C.C.C.C.C.B.B & +.6.@.@.@.@.-.O.O. .6.o C.C.C.C.",
"C.C.C.m.o & v 9.a.s.s.f.k.8.1.C.C.C.C.C.C.C.C.C.C.C.C.C.C.C.C.4.  *.>.@.@.-.@.O. . .9.o C.C.C.C.",
"C.C.C.j.o o 6.h.h.k.l.l.c.s.y.C.C.C.C.C.C.C.C.C.C.C.C.C.C.C.C.v x 9.@.@.-.@.O.O.{ L 6.o C.C.C.C.",
"C.C.C.c.  e k.z.b.b.n.M.M.z.k.C.C.C.C.C.C.C.C.C.C.C.C.C.C.C.Y q 9.@.@.-.-.@.O. .{ L 6.o C.C.C.C.",
"C.C.C.B.  X.n.n.M.M.B.V.V.B.M.C.C.C.C.C.C.C.C.C.C.C.C.C.C.[ 5 7.>.@.@.@.@.O. .L L K 6.o C.C.C.C.",
"C.C.C.C.  i.V.V.V.C.C.C.C.C.C.C.C.C.C.C.C.C.C.C.C.C.C.C.=.* 6.>.+.@.@.@.@. .} L L K 6.@ C.C.C.C.",
"C.C.C.C.C.C.C.C.C.C.C.C.C.C.C.C.C.C.C.C.C.C.C.C.C.C.C.y.$ 3.y.p.a.a.f.a.p.p.p.9.9.9.7.@ C.C.C.C.",
"C.C.C.C.C.C.C.C.C.C.C.C.C.C.C.C.C.C.C.C.C.C.C.C.C.C.g.                          X       C.C.C.C.",
"C.C.C.C.                                  c.C.C.C.C.C.C.C.C.C.C.C.C.C.C.C.C.C.C.C.C.C.C.C.C.C.C.",
"C.C.C.C.# ....o.@.@.>.,.,.6.6.,.,.,.] @ i.C.C.C.C.C.C.C.C.C.C.C.C.C.C.C.C.C.C.C.C.C.C.C.C.C.C.C.",
"C.C.C.C.@ | K K L  .O.@.@.@.@.@.*.X.@ 2.C.C.C.C.C.C.C.C.C.C.C.C.C.C.C.C.C.C.C.V.V.B./   C.C.C.C.",
"C.C.C.C.o ..K { L O.O.@.@.@.@.@.o.* =.C.C.C.C.C.C.C.C.C.C.C.C.C.C.n.V.V.B.B.M.M.M.n.a   C.C.C.C.",
"C.C.C.C.o ..L {  .O.@.-.@.@.-.>.3 ' C.C.C.C.C.C.C.C.C.C.C.C.C.C.C.s.M.M.n.b.n.z.l.h.@   C.C.C.C.",
"C.C.C.C.X ..{ }  .+.@.-.@.@.>.7 M C.C.C.C.C.C.C.C.C.C.C.C.C.C.C.C.1.k.z.l.l.k.h.f.X.o . C.C.C.C.",
"C.C.C.C.o ..{ } O.@.-.@.@.-.^   u.C.C.C.C.C.C.C.C.C.C.C.C.C.C.C.C.&.s.h.f.s.s.p.8.7 & $ C.C.C.C.",
"C.C.C.C.o +. .O.@.-.@.@.o.+.>.^ # Y V.C.C.C.C.C.C.C.C.C.C.C.C.C.C.X.p.p.p.8.8.7.^ o 6 1 C.C.C.C.",
"C.C.C.C.o @. .O.@.@.@.@.@.+...o...0 $ 4.C.C.C.C.C.C.C.C.C.C.C.C.m.X.7.7.5.5.,.X.+ > 6 c C.C.C.C.",
"C.C.C.C.o *.O.@.@.@.@.+.+.+.+.} } } N * 0 e.C.C.C.C.C.C.C.C.C.C.g.*.,.,.;.;.X.& % y - <.C.C.C.C.",
"C.C.C.C.o -.+.@.>.@.@.@.+.+. .} ( J H G s # 2 =.V.C.C.C.C.C.C.C.*.*.-.-.-.F X ; y i + m.C.C.C.C.",
"C.C.C.C.o -.@.@.@.>.@.+.o...} _ J G S A A C y 1 X e #.g.V.C.C.6.X.*.X.N * o > 9 i 4 a C.C.C.C.C.",
"C.C.C.C.o ,.-.-.,.] -.@.+. ._ ( K D A V g d d d d 6 - O . @ $ = & o X @ ; , t y i # g.C.C.C.C.C.",
"C.C.C.C.. 3.@.,.^   # B @. .( J G A Z V f u u u y y u y t , , : : , , : , , t p * n C.C.C.C.C.C.",
"C.C.C.C.  3.,.) O 4.:.2 2 F ] J D A C f d u y u y y r r r r 8 8 , , , , 8 r p 1 2 N.V.C.C.C.C.C.",
"C.C.N.N.  3.` O :.x.t.t.E * - b J A V d u u y y t t r r 8 8 , , , , , , r y & 2 d.v.N.V.C.C.C.C.",
"C.V.N.N.  ] O $.t.t.r.r.r.w.R < + 4 f g V u y y t r r r 8 8 8 , , , : 8 , o a d.v.v.v.N.N.V.C.C.",
"C.V.N.v.  # %.t.t.t.r.r.w.w.0.0.Q h o o * 8 i i y t r r r , 6 , , : = O < %.t.x.x.v.v.N.N.V.C.C.",
"C.V.N.N.  %.x.x.t.t.r.r.w.w.0.0.0.~ ~ T j < . . # % = = ; % # O X O k :.t.t.t.x.x.v.N.N.N.V.C.C.",
"C.N.N.N.$.v.v.x.x.t.t.t.r.w.w.w.0.0.0.0.~ ~ ~ ! I z z l h z P W q.r.r.t.t.t.x.x.v.v.N.N.N.C.C.C.",
"C.C.C.C.N.N.v.v.v.x.x.t.t.t.t.r.r.r.w.w.w.w.w.w.w.w.w.w.w.w.r.r.r.t.t.t.x.v.v.v.N.N.N.V.C.C.C.C.",
"C.C.C.C.C.V.N.N.N.v.v.x.x.x.x.t.t.t.t.t.t.r.r.t.t.t.t.t.t.t.x.x.x.x.x.v.v.N.N.N.V.V.C.C.C.C.C.C.",
"C.C.C.C.C.C.C.C.C.V.N.N.N.N.v.v.v.v.v.x.x.v.x.x.x.x.x.x.v.v.v.v.v.N.N.N.N.V.C.C.C.C.C.C.C.C.C.C.",
"C.C.C.C.C.C.C.C.C.C.C.C.C.C.C.V.V.N.N.N.N.N.N.N.N.N.N.N.N.N.V.V.C.C.C.C.C.C.C.C.C.C.C.C.C.C.C.C.",
"C.C.C.C.C.C.C.C.C.C.C.C.C.C.C.C.C.C.C.C.C.C.C.C.C.C.C.C.C.C.C.C.C.C.C.C.C.C.C.C.C.C.C.C.C.C.C.C."
};
